<?xml version="1.0" encoding="UTF-8"?>
<svg width="25px" height="25px" viewBox="0 0 25 25" version="1.1" xmlns="http://www.w3.org/2000/svg" xmlns:xlink="http://www.w3.org/1999/xlink">
    <!-- Generator: Sketch 49.3 (51167) - http://www.bohemiancoding.com/sketch -->
    <title>nav/icon/active/account</title>
    <desc>Created with Sketch.</desc>
    <defs></defs>
    <g id="nav/icon/active/account" stroke="none" stroke-width="1" fill="none" fill-rule="evenodd">
        <path d="M16.1777161,18.343512 C15.0747542,17.7512245 15.6634712,16.6415731 16.1777161,16.1242092 C16.8394933,15.4584184 17.6488026,13.1656123 17.6488026,13.1656123 C18.972357,12.5733248 19.1198892,11.6121004 19.2660095,10.9463096 C19.8547265,9.02244037 18.38364,8.72700678 18.38364,8.72700678 C18.38364,8.72700678 19.5596621,5.54647959 18.6042324,3.10524653 C17.3537383,-0.0752806619 12.2801134,-1.25985571 11.3977439,1.70016156 C5.36868925,0.367195048 6.61777157,8.72558643 6.61777157,8.72558643 C6.61777157,8.72558643 5.14668507,9.02103067 5.73540203,10.9448892 C5.88292363,11.61068 6.0290652,12.5719045 7.35260893,13.164192 C7.35260893,13.164192 8.16191827,15.4569981 8.82369543,16.1227889 C9.3379404,16.6401528 9.92665736,17.7498041 8.82369543,18.3420917 C6.61777157,19.5252464 0,19.8221003 0,25 L25,25 C25.0013788,19.8221003 18.38364,19.5266667 16.1777161,18.343512 Z" id="Shape" fill="#00BFE8" fill-rule="nonzero"></path>
    </g>
</svg>