<?xml version="1.0" encoding="UTF-8"?>
<svg width="25px" height="25px" viewBox="0 0 25 25" version="1.1" xmlns="http://www.w3.org/2000/svg" xmlns:xlink="http://www.w3.org/1999/xlink">
    <!-- Generator: Sketch 49.3 (51167) - http://www.bohemiancoding.com/sketch -->
    <title>nav/icon/inactive/activities</title>
    <desc>Created with Sketch.</desc>
    <defs></defs>
    <g id="nav/icon/inactive/activities" stroke="none" stroke-width="1" fill="none" fill-rule="evenodd">
        <path d="M2.76533537,0 L22.1799695,2.16628883e-15 C23.7079268,2.16628883e-15 24.9453049,1.23856707 24.9453049,2.76533537 L24.9453049,22.1799695 C24.9453049,23.7079268 23.7067378,24.9453049 22.1799695,24.9453049 L2.76533537,24.9453049 C1.23737805,24.9453049 0,23.7067378 0,22.1799695 L0,2.76533537 C0,1.23737805 1.23856707,0 2.76533537,0 Z M6.92295732,5.54390244 C6.1607622,5.54390244 5.54387195,6.15841463 5.54387195,6.92896341 C5.54387195,7.69472561 6.16554878,8.31521341 6.92295732,8.31521341 L18.0223476,8.31521341 C18.7845427,8.31521341 19.4014329,7.70070122 19.4014329,6.92896341 C19.4014329,6.16439024 18.7797561,5.54390244 18.0223476,5.54390244 L6.92295732,5.54390244 Z M6.92295732,11.0865854 C6.1607622,11.0865854 5.54387195,11.7022866 5.54387195,12.4728354 C5.54387195,13.2385976 6.16554878,13.8590854 6.92295732,13.8590854 L18.0223476,13.8590854 C18.7845427,13.8590854 19.4014329,13.2433841 19.4014329,12.4728354 C19.4014329,11.7070732 18.7797561,11.0865854 18.0223476,11.0865854 L6.92295732,11.0865854 Z M6.93367561,16.6304878 C6.16553537,16.6304878 5.54385854,17.245 5.54385854,18.0167378 C5.54385854,18.781311 6.16553537,19.4017988 6.93367561,19.4017988 L13.8541024,19.4017988 C14.6222427,19.4017988 15.2439195,18.7872866 15.2439195,18.0167378 C15.2439195,17.2509756 14.6222427,16.6304878 13.8541024,16.6304878 L6.93367561,16.6304878 Z" id="Shape" fill="#CCD8E1" fill-rule="nonzero"></path>
    </g>
</svg>