<?xml version="1.0" encoding="UTF-8"?>
<svg width="25px" height="25px" viewBox="0 0 25 25" version="1.1" xmlns="http://www.w3.org/2000/svg" xmlns:xlink="http://www.w3.org/1999/xlink">
    <!-- Generator: Sketch 49.3 (51167) - http://www.bohemiancoding.com/sketch -->
    <title>nav/icon/inactive/admin</title>
    <desc>Created with Sketch.</desc>
    <defs></defs>
    <g id="nav/icon/inactive/admin" stroke="none" stroke-width="1" fill="none" fill-rule="evenodd">
        <path d="M24.8066504,10.6737659 C24.7818249,10.5475705 24.6825231,10.4493014 24.5563277,10.4286149 L20.9173794,9.84106588 C20.7663585,9.35594338 20.5687903,8.88114828 20.3350206,8.42809366 L22.4917237,5.43871168 C22.5672354,5.33423822 22.5672354,5.19356064 22.4958615,5.08805709 C21.7355803,3.96470195 21.0342711,3.26545825 19.9129815,2.5041443 C19.8074726,2.43070332 19.6657623,2.43277145 19.5623269,2.50828188 L16.5718857,4.66705048 C16.1188311,4.43017459 15.644036,4.23467711 15.1589135,4.08159343 L14.5713645,0.445822802 C14.5506766,0.319627401 14.4524088,0.217222069 14.3262134,0.193432001 C13.686948,0.069304726 13.2049238,0 12.4994836,0 C11.794017,0 11.3130255,0.069304726 10.6727538,0.193432001 C10.5475912,0.217222863 10.4503601,0.319627401 10.4296709,0.445822802 L9.84212192,4.08265265 C9.35493395,4.23574163 8.88117159,4.43124176 8.4291497,4.66604422 L5.43976772,2.5093411 C5.33529426,2.43382935 5.19564942,2.43176122 5.08911314,2.50313487 C3.96782347,3.26548156 3.2665143,3.96472525 2.5041676,5.0880804 C2.43279475,5.19462198 2.43486288,5.33529956 2.51037384,5.43873498 L4.66707696,8.42811696 C4.4322692,8.87807337 4.23676907,9.35183573 4.08161991,9.84108918 L0.444790063,10.4286382 C0.317559275,10.4493261 0.218257456,10.5465584 0.194467388,10.6737892 C0.0682719871,11.3171856 0,11.8012753 0,12.500519 C0,13.1997627 0.0672366001,13.6838789 0.193432001,14.3272488 C0.218257456,14.4513761 0.317559275,14.5496425 0.443754676,14.5692963 L4.08164374,15.1568453 C4.23473272,15.6440333 4.43229833,16.1198612 4.66710079,16.5719095 L2.51039767,19.5591731 C2.43488592,19.6636465 2.43281779,19.8043241 2.50626009,19.9098276 C3.26447583,21.0311173 3.96681774,21.730361 5.09017288,22.4927077 C5.19671447,22.5640805 5.33739205,22.5620124 5.44082747,22.4865015 L8.42809101,20.3308311 C8.87804742,20.5656388 9.35387526,20.761139 9.84315519,20.9162881 L10.4307042,24.5541772 C10.4513918,24.6803726 10.5486244,24.7807098 10.6727517,24.8044999 C11.3171808,24.9317307 11.8002378,25 12.4994815,25 C13.1966597,25 13.6797167,24.9306953 14.3262113,24.8044999 C14.4534421,24.7796744 14.5506758,24.6803726 14.5713623,24.5541772 L15.1589114,20.9162881 C15.6440338,20.7631992 16.1198617,20.567699 16.5718836,20.3308311 L19.5602063,22.4875342 C19.6646798,22.563046 19.8053574,22.5651141 19.9108609,22.4916718 C21.0342161,21.7293251 21.7355252,21.0300814 22.493741,19.9087917 C22.5671819,19.8032829 22.5651138,19.6615726 22.4896034,19.5581371 L20.3329003,16.5708736 C20.567708,16.1219499 20.7632082,15.6471548 20.9152591,15.1579014 L24.5542074,14.5703524 C24.6814382,14.5496645 24.78074,14.4524321 24.8045301,14.3252013 C24.9348644,13.660091 25.0000302,13.1935843 25.0000302,12.500537 C25.0031334,11.8033588 24.9348644,11.3378848 24.8065982,10.6738072 L24.8066504,10.6737659 Z M16.4208103,12.5004957 C16.4187416,14.6644545 14.6654454,16.4177539 12.5014337,16.4198723 C10.3374749,16.4198723 8.58205703,14.6645075 8.58417547,12.5004957 C8.58210681,10.3365369 10.3374749,8.58323753 12.5014337,8.58323753 C14.6653924,8.58323753 16.4186918,10.3365369 16.4208103,12.5004957 Z" id="Shape" fill="#CCD8E1" fill-rule="nonzero"></path>
    </g>
</svg>