<?xml version="1.0" encoding="UTF-8"?>
<svg width="14px" height="15px" viewBox="0 0 14 15" version="1.1" xmlns="http://www.w3.org/2000/svg" xmlns:xlink="http://www.w3.org/1999/xlink">
    <!-- Generator: Sketch 49.3 (51167) - http://www.bohemiancoding.com/sketch -->
    <title>nav/activities/placeholder</title>
    <desc>Created with Sketch.</desc>
    <defs></defs>
    <g id="💎-Symbols" stroke="none" stroke-width="1" fill="none" fill-rule="evenodd">
        <g id="nav/vertical" transform="translate(-42.000000, -515.000000)" fill="#CCD8E1">
            <g id="activities" transform="translate(0.000000, 454.000000)">
                <g id="nav/activities/building" transform="translate(42.000000, 61.000000)">
                    <path d="M13.2373973,0.000182879621 L1.17861792,0.000182879621 C1.11510893,0.000182879621 1.05289725,0.0248087492 1.00753748,0.0701718438 C0.960880378,0.116828941 0.936254508,0.177746614 0.937548511,0.242549613 L0.9375,14.0625 L6.24627813,14.0625 L6.24627813,12.3633415 C6.24757214,12.2311409 6.35515022,12.1248635 6.48734754,12.1248635 L7.93507129,12.1248635 C8.06727193,12.1248635 8.1748467,12.2311409 8.17743803,12.3633415 L8.17743803,14.0625 L13.4861676,14.0625 L13.4861676,0.242549613 C13.4861676,0.177746614 13.4602445,0.114237618 13.4135874,0.0675805201 C13.3656329,0.0222174255 13.3021239,-0.00240844403 13.2373209,0.000186197577 L13.2373973,0.000182879621 Z M4.79618536,10.4258643 C4.80007401,10.4919646 4.77544814,10.5567676 4.73008505,10.6060193 C4.68472195,10.6539737 4.61991895,10.6811909 4.55381863,10.6811909 L3.10738889,10.6811909 C2.97389425,10.6811909 2.86502215,10.5723222 2.86502215,10.4388242 L2.86502215,8.96906923 C2.86631616,8.83686859 2.97518825,8.73059114 3.10738889,8.73059114 L4.55381863,8.73059114 C4.68601927,8.73059114 4.79359404,8.83686859 4.79618536,8.96906923 L4.79618536,10.4258643 Z M4.79618536,7.03159526 C4.79618536,7.09639826 4.77026217,7.15731593 4.7249024,7.20267571 C4.6795393,7.24803549 4.61862495,7.27395868 4.55382195,7.27395868 L3.10739221,7.27395868 C2.97389756,7.27395868 2.86502547,7.16508991 2.86502547,7.03159195 L2.86502547,5.57481018 C2.86502547,5.44131554 2.97389425,5.33244345 3.10739221,5.33244345 L4.55382195,5.33244345 C4.61862495,5.33244345 4.67954262,5.35836664 4.7249024,5.40372641 C4.77026217,5.44908951 4.79618536,5.51130118 4.79618536,5.57480686 L4.79618536,7.03159526 Z M4.79618536,3.63732626 C4.79618536,3.70212926 4.77026217,3.76304693 4.7249024,3.80840671 C4.6795393,3.8537698 4.61862495,3.87968968 4.55382195,3.87968968 L3.10739221,3.87968968 C2.97389756,3.87968968 2.86502547,3.7708209 2.86502547,3.63732294 L2.86502547,2.18054118 C2.86502547,2.04704653 2.97389425,1.93817444 3.10739221,1.93817444 L4.55382195,1.93817444 C4.61862495,1.93817444 4.67954262,1.96409763 4.7249024,2.00945741 C4.77026217,2.05482051 4.79618536,2.11703218 4.79618536,2.18053786 L4.79618536,3.63732626 Z M8.17386459,10.4261961 C8.17386459,10.4897051 8.1479414,10.5519167 8.10258162,10.5972765 C8.05721853,10.6426396 7.99630417,10.6685595 7.93150117,10.6685595 L6.48507143,10.6685595 C6.35157678,10.6685595 6.24270469,10.5596874 6.24270469,10.4261927 L6.24270469,8.96941098 C6.2439987,8.83721034 6.35287079,8.73093289 6.48507143,8.73093289 L7.93150117,8.73093289 C8.06370181,8.73093289 8.17257058,8.83721034 8.1738679,8.96941098 L8.17386459,10.4261961 Z M8.17386459,7.03192706 C8.17386459,7.09673006 8.1479414,7.15764773 8.10258162,7.20300751 C8.05721853,7.2483706 7.99630417,7.27429047 7.93150117,7.27429047 L6.48507143,7.27429047 C6.35157678,7.27429047 6.24270469,7.1654217 6.24270469,7.03192374 L6.24270469,5.57514197 C6.24270469,5.44164733 6.35157347,5.33277524 6.48507143,5.33277524 L7.93150117,5.33277524 C7.99630417,5.33277524 8.05722184,5.35869843 8.10258162,5.40405821 C8.14794471,5.4494213 8.17386459,5.51163298 8.17386459,5.57513866 L8.17386459,7.03192706 Z M8.17386459,3.63765806 C8.17386459,3.70246106 8.1479414,3.76337873 8.10258162,3.80873851 C8.05721853,3.8541016 7.99630417,3.88002147 7.93150117,3.88002147 L6.48507143,3.88002147 C6.35157678,3.88002147 6.24270469,3.7711527 6.24270469,3.63765474 L6.24270469,2.18087297 C6.24270469,2.04737833 6.35157347,1.93850624 6.48507143,1.93850624 L7.93150117,1.93850624 C7.99630417,1.93850624 8.05722184,1.96442943 8.10258162,2.00978921 C8.14794471,2.0551523 8.17386459,2.11736398 8.17386459,2.18086965 L8.17386459,3.63765806 Z M11.5515438,10.4265279 C11.5515438,10.4900369 11.5256206,10.5522485 11.4802608,10.5976083 C11.4348977,10.6429714 11.3739834,10.6688913 11.3091804,10.6688913 L9.86275065,10.6688913 C9.72925601,10.6688913 9.62038392,10.5600192 9.62038392,10.4265245 L9.62038392,8.96974277 C9.62297524,8.83754213 9.73055001,8.73126468 9.86275065,8.73126468 L11.3091804,8.73126468 C11.441381,8.73126468 11.5502498,8.83754213 11.5515471,8.96974277 L11.5515438,10.4265279 Z M11.5515438,7.03225885 C11.5515438,7.09706185 11.5256206,7.15797953 11.4802608,7.2033393 C11.4348977,7.24869908 11.3739834,7.27462227 11.3091804,7.27462227 L9.86275065,7.27462227 C9.72925601,7.27462227 9.62038392,7.1657535 9.62038392,7.03225554 L9.62038392,5.57547377 C9.62038392,5.44197913 9.72925269,5.33310704 9.86275065,5.33310704 L11.3091804,5.33310704 C11.3739834,5.33310704 11.4349011,5.35903023 11.4802608,5.40439 C11.5256206,5.4497531 11.5515438,5.51196477 11.5515438,5.57547045 L11.5515438,7.03225885 Z M11.5515438,3.63798985 C11.5515438,3.70279285 11.5256206,3.76371052 11.4802608,3.8090703 C11.4348977,3.8544334 11.3739834,3.88035327 11.3091804,3.88035327 L9.86275065,3.88035327 C9.72925601,3.88035327 9.62038392,3.7714845 9.62038392,3.63798653 L9.62038392,2.18120477 C9.62038392,2.04771013 9.72925269,1.93883803 9.86275065,1.93883803 L11.3091804,1.93883803 C11.3739834,1.93883803 11.4349011,1.96476122 11.4802608,2.010121 C11.5256206,2.0554841 11.5515438,2.11769577 11.5515438,2.18120145 L11.5515438,3.63798985 Z" id="Page-1"></path>
                </g>
            </g>
        </g>
    </g>
</svg>