<?xml version="1.0" encoding="UTF-8"?>
<svg width="11px" height="14px" viewBox="0 0 11 14" version="1.1" xmlns="http://www.w3.org/2000/svg" xmlns:xlink="http://www.w3.org/1999/xlink">
    <!-- Generator: Sketch 49.3 (51167) - http://www.bohemiancoding.com/sketch -->
    <title>nav/activities/placeholder copy 3</title>
    <desc>Created with Sketch.</desc>
    <defs></defs>
    <g id="💎-Symbols" stroke="none" stroke-width="1" fill="none" fill-rule="evenodd">
        <g id="nav/vertical" transform="translate(-44.000000, -654.000000)" fill="#CCD8E1">
            <g id="activities" transform="translate(0.000000, 454.000000)">
                <g id="nav/activities/code" transform="translate(42.000000, 200.000000)">
                    <g id="Page-1" transform="translate(1.875000, 0.000000)">
                        <path d="M7.71127232,13.961216 C9.46975446,13.9703714 10.3558594,13.9546766 10.5867187,13.9559844 C10.2760882,13.6093945 10.081875,13.1555608 10.081875,12.6513532 C10.081875,12.1458566 10.2767578,11.6907003 10.5886775,11.343457 C7.71071987,11.3382254 4.31144531,11.343457 1.43332031,11.343457 C0.70875,11.343457 0.125424107,11.9267829 0.125424107,12.6513532 C0.125424107,13.3759235 0.70875,13.9592488 1.43332031,13.9592488 C2.11799665,13.9396299 4.71674665,13.9644804 5.61858817,13.9592488" id="Fill-1"></path>
                        <path d="M1.69503348,0.0980859375 C0.828549107,0.0980859375 0.125558036,0.800424107 0.125558036,1.66756138 L0.125558036,11.3767132 C0.459073661,11.0346931 0.922064732,10.8195536 1.43345424,10.8195536 L1.69503348,10.8195536 L1.69503348,0.100078125 L1.69503348,0.0980859375 Z" id="Fill-2"></path>
                        <path d="M2.21819196,0.0980022321 L2.21819196,10.8175614 C4.92354911,10.8169068 7.95652902,10.8123298 10.5887277,10.8175614 L10.5887277,0.882739955 C10.5887277,0.449179687 10.2375502,0.0980022321 9.80398996,0.0980022321 L2.21819196,0.0980022321 Z M6.40345982,3.88776228 L7.71135603,4.52732143 C7.71135603,5.80643973 7.54786942,6.38708705 6.40345982,7.02676339 C5.25905692,6.38720424 5.09556362,5.80648996 5.09556362,4.52732143 L6.40345982,3.88776228 Z" id="Fill-3"></path>
                    </g>
                </g>
            </g>
        </g>
    </g>
</svg>