<?xml version="1.0" encoding="UTF-8"?>
<svg width="25px" height="25px" viewBox="0 0 25 25" version="1.1" xmlns="http://www.w3.org/2000/svg" xmlns:xlink="http://www.w3.org/1999/xlink">
    <!-- Generator: Sketch 49.3 (51167) - http://www.bohemiancoding.com/sketch -->
    <title>nav/icon/inactive/dashboard</title>
    <desc>Created with Sketch.</desc>
    <defs></defs>
    <g id="nav/icon/inactive/dashboard" stroke="none" stroke-width="1" fill="none" fill-rule="evenodd">
        <path d="M24.9187892,9.77841908 C24.1876627,7.91229675 23.4565363,6.0441775 22.7254098,4.17808077 C22.4076242,3.37004475 22.0245046,3 21.1013442,3 C20.3214793,3 19.7492456,3.69003849 19.5718357,4.17808077 C18.4322597,7.32425483 17.2965767,10.4704289 16.1569008,13.6166029 C15.1274791,11.6754937 14.0941644,9.73438442 13.062896,7.79429922 C12.7811713,7.26327194 12.3483401,7.052264 11.9038295,7.02824975 C11.3315959,6.89324255 10.7184349,7.07925315 10.3694547,7.79429922 C9.40826181,9.7654135 8.44904044,11.7374494 7.48582616,13.7087685 C6.66306244,12.6957153 5.84227021,11.6856575 5.01950649,10.6726811 C4.45216412,9.97363087 3.72006437,10.045648 3.1751322,10.4566681 C2.95092041,10.5956768 2.74035439,10.7666772 2.57170392,10.9957086 C1.79183851,12.064778 1.0119736,13.1298279 0.232108555,14.1979501 C-0.279682599,14.8979988 0.120978454,15.9840676 0.791664627,16.3870871 C1.58907363,16.8651192 2.41670371,16.5090938 2.92557543,15.8130492 C3.27750039,15.3310233 3.62745385,14.8509943 3.98132536,14.3689684 C4.89180829,15.491033 5.80328944,16.6150945 6.71571892,17.7360838 C7.12514176,18.239103 7.61841567,18.3251242 8.07073733,18.1971165 C8.49770401,18.163115 8.90520526,17.9431005 9.16449475,17.4130691 C10.0340504,15.6269516 10.9055525,13.8408853 11.7771046,12.0546654 C12.8669689,14.1057845 13.9587798,16.1598734 15.0485443,18.2131174 C15.6880336,19.411193 17.0654622,19.0971644 17.6561631,18.2301168 C17.8062864,18.0711082 17.9330213,17.8741017 18.0217138,17.6300678 C19.0842766,14.6958745 20.1448929,11.7627079 21.2055591,8.8274906 C21.4404944,9.42753965 21.6763979,10.02956 21.9123039,10.6296091 C22.2291162,11.4376451 22.9388058,11.998703 23.8288251,11.7466813 C24.5794419,11.5346698 25.2345284,10.5896194 24.9186894,9.77856245 L24.9187892,9.77841908 Z" id="Page-1-Copy" fill="#CCD8E1"></path>
    </g>
</svg>