<?xml version="1.0" encoding="UTF-8"?>
<svg width="14px" height="15px" viewBox="0 0 14 15" version="1.1" xmlns="http://www.w3.org/2000/svg" xmlns:xlink="http://www.w3.org/1999/xlink">
    <!-- Generator: Sketch 49.3 (51167) - http://www.bohemiancoding.com/sketch -->
    <title>nav/activities/placeholder copy</title>
    <desc>Created with Sketch.</desc>
    <defs></defs>
    <g id="💎-Symbols" stroke="none" stroke-width="1" fill="none" fill-rule="evenodd">
        <g id="nav/vertical" transform="translate(-42.000000, -562.000000)" fill="#CCD8E1">
            <g id="activities" transform="translate(0.000000, 454.000000)">
                <g id="nav/activities/housing" transform="translate(42.000000, 108.000000)">
                    <g id="Page-1">
                        <path d="M6.82832031,1.71894531 C6.87485938,1.68766406 6.93741992,1.67240625 6.99998242,1.67240625 C7.06254297,1.67240625 7.10908203,1.68766406 7.17164453,1.71894531 C7.53098047,1.98445312 11.2503555,4.64101562 12.7341445,5.70292969 C12.8905469,5.8120293 13.0622109,5.90587891 13.0622109,6.12484375 L13.0622109,13.9685937 C13.0622109,14.1402559 12.9218301,14.2966602 12.7341445,14.2966602 L8.75016016,14.2966602 C8.65631836,14.2966602 8.57849805,14.2653789 8.51594141,14.2028184 C8.45338086,14.1562793 8.42209961,14.0776973 8.42209961,13.9685996 L8.42209961,9.35883398 L8.42209961,9.13986914 C8.42209961,9.10858789 8.3442793,9.12461133 8.32825781,9.12461133 L5.68763281,9.12461133 C5.67237305,9.12461133 5.5159707,9.10935156 5.5159707,9.13986914 C5.50071094,9.1864082 5.5159707,9.24896875 5.5159707,9.29627148 L5.5159707,13.9685371 C5.5159707,14.1401992 5.37558984,14.2966035 5.1879043,14.2966035 L1.26641992,14.2966035 C1.09399609,14.2966035 0.937591797,14.1562227 0.937591797,13.9685371 L0.937591797,6.17127148 C0.937591797,6.03089062 0.968873047,5.90576367 1.09399414,5.81193555 C1.12527539,5.79667773 1.15655469,5.76539648 1.18783594,5.749375 C1.79666406,5.32824219 5.54642969,2.64039062 6.82826563,1.71871094 L6.82832031,1.71894531 Z" id="Fill-1"></path>
                        <path d="M7.03125,0.796503906 C6.07833984,1.46865234 1.76542969,4.56232422 0.562304688,5.42228516 C0.421923828,5.53138477 0.20296875,5.45356641 0.109121094,5.31318555 C0.0152792969,5.1567832 0.0778398438,4.96910352 0.218220703,4.86000195 C1.23445117,4.14054883 5.65650195,0.984220703 6.85962695,0.109220703 C6.9221875,0.0779394531 6.96872656,0.0626816406 7.03128906,0.0626816406 C7.09385156,0.0626816406 7.14038867,0.0779414062 7.20295117,0.109220703 C8.20316602,0.827912109 12.6252168,3.9842207 13.8435762,4.8592207 C13.983957,4.96832031 14.062541,5.14074414 13.9526758,5.3124043 C13.8748555,5.45278516 13.6558984,5.53136914 13.4994922,5.42150391 C12.5000391,4.7028125 8.18796875,1.62501953 7.03132813,0.796503906 L7.03125,0.796503906 Z" id="Fill-2"></path>
                    </g>
                </g>
            </g>
        </g>
    </g>
</svg>