<?xml version="1.0" encoding="UTF-8"?>
<svg width="25px" height="25px" viewBox="0 0 25 25" version="1.1" xmlns="http://www.w3.org/2000/svg" xmlns:xlink="http://www.w3.org/1999/xlink">
    <!-- Generator: Sketch 49.3 (51167) - http://www.bohemiancoding.com/sketch -->
    <title>nav/icon/inactive/log-out</title>
    <desc>Created with Sketch.</desc>
    <defs></defs>
    <g id="nav/icon/inactive/log-out" stroke="none" stroke-width="1" fill="none" fill-rule="evenodd">
        <path d="M3.75482297,1.87891929 L8.14258252,4.20801532 C8.97741573,4.65136457 9.65547158,5.77538765 9.65547158,6.71976104 L9.65547158,19.3027396 L15.2543049,19.3027396 C15.7589274,19.3027396 16.1685051,18.8945403 16.1685051,18.3925911 L16.1685051,14.2070983 C16.1685051,13.7354241 16.5525971,13.3525997 17.0258892,13.3525997 L17.1963852,13.3525997 C17.672587,13.3525997 18.0537693,13.7353991 18.0537693,14.2070983 L18.0537693,19.4735893 C18.0537693,20.4169377 17.2865385,21.1815864 16.3400045,21.1815864 L9.65551924,21.1815864 L9.65551924,23.9140817 C9.65551924,24.8584051 8.97844168,25.2636794 8.14263018,24.8203302 L0.962226738,21.0088367 C0.926953085,20.9922352 0.891676923,20.9736817 0.858362359,20.9541493 L0.623196308,20.7910645 C0.242039171,20.4775901 0,20.0039659 0,19.4736918 L0,1.70897208 C0,0.764648696 0.767230811,0 1.71376476,0 L16.3402152,0 C17.2867492,0 18.05398,0.764648696 18.05398,1.70897208 L18.05398,6.9744631 C18.05398,7.4461373 17.669888,7.82896165 17.1965959,7.82896165 L17.0260999,7.82896165 C16.549898,7.82896165 16.1687158,7.4461623 16.1687158,6.9744631 L16.1687158,2.78997024 C16.1687158,2.2870461 15.7591381,1.87884679 15.2545156,1.87884679 L3.75482297,1.87891929 Z M19.7107455,11.9306521 L15.1396192,11.9306521 C14.3821963,11.9306521 13.768808,11.3193282 13.768808,10.5644545 C13.768808,9.80958077 14.3831746,9.19725681 15.1396192,9.19725681 L19.7107455,9.19725681 L19.7107455,8.0302588 C19.7107455,7.08691041 20.3407898,6.75878597 21.1168504,7.29783505 L24.4179546,9.58788114 C25.1940151,10.1269302 25.1940151,11.0009537 24.4179546,11.5400278 L21.1168504,13.8300739 C20.3407898,14.369123 19.7107455,14.041011 19.7107455,13.0986252 L19.7107455,11.9306521 Z" id="Shape" fill="#CCD8E1" fill-rule="nonzero"></path>
    </g>
</svg>