<?xml version="1.0" encoding="UTF-8"?>
<svg width="12px" height="12px" viewBox="0 0 12 12" version="1.1" xmlns="http://www.w3.org/2000/svg" xmlns:xlink="http://www.w3.org/1999/xlink">
    <!-- Generator: Sketch 49.3 (51167) - http://www.bohemiancoding.com/sketch -->
    <title>Page 1</title>
    <desc>Created with Sketch.</desc>
    <defs></defs>
    <g id="💎-Symbols" stroke="none" stroke-width="1" fill="none" fill-rule="evenodd">
        <g id="nav/vertical" transform="translate(-139.000000, -517.000000)" fill="#CCD8E1">
            <g id="activities" transform="translate(0.000000, 454.000000)">
                <path d="M150.089265,68.0900607 L145.912084,68.0900607 L145.912084,63.9115519 C145.912084,63.4082768 145.503855,63 145.000675,63 C144.497478,63 144.089265,63.4082936 144.089265,63.9115519 L144.089265,68.0900607 L139.911409,68.0900607 C139.408213,68.0900607 139,68.4983544 139,69.0016126 C139,69.5055462 139.40823,69.9131644 139.911409,69.9131644 L144.08859,69.9138247 L144.08859,74.0884481 C144.08859,74.5923818 144.49682,75 145,75 C145.503196,75 145.911409,74.5917064 145.911409,74.0884481 L145.911409,69.9138247 L150.08859,69.9138247 C150.591786,69.9138247 150.999999,69.505531 150.999999,69.0022728 C151.000659,68.4983392 150.592428,68.0900624 150.089248,68.0900624 L150.089265,68.0900607 Z" id="Page-1"></path>
            </g>
        </g>
    </g>
</svg>