<?xml version="1.0" encoding="UTF-8"?>
<svg width="25px" height="25px" viewBox="0 0 25 25" version="1.1" xmlns="http://www.w3.org/2000/svg" xmlns:xlink="http://www.w3.org/1999/xlink">
    <!-- Generator: Sketch 49.3 (51167) - http://www.bohemiancoding.com/sketch -->
    <title>nav/icon/active/reports</title>
    <desc>Created with Sketch.</desc>
    <defs></defs>
    <g id="nav/icon/active/reports" stroke="none" stroke-width="1" fill="none" fill-rule="evenodd">
        <path d="M8,20 L10,20 L10,12 C10,10.8954305 10.8954305,10 12,10 C13.1045695,10 14,10.8954305 14,12 L14,20 L16,20 L16,6 C16,4.8954305 16.8954305,4 18,4 C19.1045695,4 20,4.8954305 20,6 L20,20 L23.5,20 C23.7761424,20 24,20.2238576 24,20.5 C24,20.7761424 23.7761424,21 23.5,21 L1.5,21 C1.22385763,21 1,20.7761424 1,20.5 C1,20.2238576 1.22385763,20 1.5,20 L4,20 L4,17 C4,15.8954305 4.8954305,15 6,15 C7.1045695,15 8,15.8954305 8,17 L8,20 Z" id="Combined-Shape" fill="#00BFE8"></path>
    </g>
</svg>