<?xml version="1.0" encoding="UTF-8"?>
<svg width="25px" height="25px" viewBox="0 0 25 25" version="1.1" xmlns="http://www.w3.org/2000/svg" xmlns:xlink="http://www.w3.org/1999/xlink">
    <!-- Generator: Sketch 49.3 (51167) - http://www.bohemiancoding.com/sketch -->
    <title>nav/icon/active/schedule</title>
    <desc>Created with Sketch.</desc>
    <defs></defs>
    <g id="nav/icon/active/schedule" stroke="none" stroke-width="1" fill="none" fill-rule="evenodd">
        <path d="M16.9252857,10.0195 C12.8140357,10.0195 9.48378571,13.3495 9.48378571,17.461 C9.48378571,21.5725 12.8137857,24.9025 16.9252857,24.9025 C21.0367857,24.9025 24.3667857,21.5725 24.3667857,17.461 C24.3667857,13.3495 21.0367857,10.0195 16.9252857,10.0195 Z M19.4057607,18.70125 L16.9252857,18.70125 C16.2416857,18.70125 15.6850607,18.1446 15.6850607,17.461025 L15.6850607,13.740275 C15.6850607,13.056675 16.2417107,12.50005 16.9252857,12.50005 C17.6088607,12.50005 18.1655107,13.0567 18.1655107,13.740275 L18.1655107,16.22075 L19.4057357,16.22075 C20.0893357,16.22075 20.6459607,16.7774 20.6459607,17.460975 C20.6459607,18.14455 20.0893107,18.7012 19.4057357,18.7012 L19.4057607,18.70125 Z" id="Shape" fill="#00BFE8" fill-rule="nonzero"></path>
        <path d="M7.49525,19.843725 L2.4805,19.843725 L2.4805,2.480475 L19.84375,2.480475 L19.84375,7.441475 C19.84375,8.125075 20.4004,8.6817 21.083975,8.6817 C21.767575,8.6817 22.3242,8.12505 22.3242,7.441475 L22.3242,1.240225 C22.3242,0.556625 21.76755,0 21.083975,0 L1.240225,0 C0.556625,0 0,0.55665 0,1.240225 L0,21.083975 C0,21.767575 0.55665,22.3242 1.240225,22.3242 L7.495225,22.3242 C8.178825,22.3242 8.73545,21.76755 8.73545,21.083975 C8.73545,20.400375 8.1788,19.84375 7.495225,19.84375 L7.49525,19.843725 Z" id="Shape" fill="#00BFE8" fill-rule="nonzero"></path>
        <path d="M5.76303571,5.0585 C5.07943571,5.0585 4.52281071,5.61515 4.52281071,6.298725 C4.52281071,6.982325 5.07946071,7.53895 5.76303571,7.53895 L15.6850357,7.53895 C16.3686357,7.53895 16.9252607,6.9823 16.9252607,6.298725 C16.9252607,5.615125 16.3686107,5.0585 15.6850357,5.0585 L5.76303571,5.0585 Z" id="Shape" fill="#00BFE8" fill-rule="nonzero"></path>
        <path d="M10.7240357,11.25975 C10.7240357,10.57615 10.1673857,10.019525 9.48381071,10.019525 L5.76306071,10.019525 C5.07946071,10.019525 4.52283571,10.576175 4.52283571,11.25975 C4.52283571,11.94335 5.07948571,12.499975 5.76306071,12.499975 L9.48381071,12.499975 C10.1674107,12.499975 10.7240357,11.943325 10.7240357,11.25975 Z" id="Shape" fill="#00BFE8" fill-rule="nonzero"></path>
        <path d="M7.00328571,17.461 C7.68688571,17.461 8.24351071,16.90435 8.24351071,16.220775 C8.24351071,15.537175 7.68686071,14.98055 7.00328571,14.98055 L5.76306071,14.98055 C5.07946071,14.98055 4.52283571,15.5372 4.52283571,16.220775 C4.52283571,16.904375 5.07948571,17.461 5.76306071,17.461 L7.00328571,17.461 Z" id="Shape" fill="#3092D0" fill-rule="nonzero"></path>
    </g>
</svg>