<?xml version="1.0" encoding="UTF-8"?>
<svg width="15px" height="15px" viewBox="0 0 15 15" version="1.1" xmlns="http://www.w3.org/2000/svg" xmlns:xlink="http://www.w3.org/1999/xlink">
    <!-- Generator: Sketch 49.3 (51167) - http://www.bohemiancoding.com/sketch -->
    <title>nav/activities/placeholder copy 2</title>
    <desc>Created with Sketch.</desc>
    <defs></defs>
    <g id="💎-Symbols" stroke="none" stroke-width="1" fill="none" fill-rule="evenodd">
        <g id="nav/vertical" transform="translate(-42.000000, -607.000000)" fill="#CCD8E1">
            <g id="activities" transform="translate(0.000000, 454.000000)">
                <g id="nav/activities/zoning" transform="translate(42.000000, 153.000000)">
                    <g id="Page-1">
                        <path d="M13.4738839,5.12262436 L13.4738839,9.59952168 L10.5322385,9.59952168 L8.36517857,6.80137117 L3.77334184,6.80137117 L3.77334184,5.29467474 L7.43246173,4.17529974 L7.43246173,0.645038265 L8.99626913,0.645038265 C9.15434311,0.444375 9.32642219,0.257716837 9.54166454,0.0996428571 L1.70655612,0.0996428571 C0.802423613,0.0996428571 0.071001419,0.831696429 0.071001419,1.7351977 L0.071001419,12.4402041 C0.071001419,13.3443364 0.80305499,14.0757587 1.70655612,14.0757587 L12.4115625,14.0757587 C12.6839732,14.0757587 12.9569579,14.0040112 13.1722003,13.8891005 C13.3302742,13.8027797 13.4877742,13.6884372 13.6026849,13.5589474 C13.8750957,13.2719576 14.0331696,12.8846362 14.0331696,12.4541518 L14.0331696,4.05970026 C13.8902358,4.30464605 13.6890115,4.67796237 13.4737691,5.12245217 L13.4738839,5.12262436 Z M3.75942427,0.631090561 L6.87311862,0.631090561 L6.87311862,3.75942283 L3.75942427,4.70671875 L3.75942427,0.631090561 Z M0.588473437,1.72188138 C0.588473437,1.1193176 1.0761265,0.631090561 1.67926483,0.631090561 L3.21451674,0.631090561 L3.21451674,6.80137117 L0.588415896,6.80137117 L0.588473437,1.72188138 Z M0.588473294,7.34673788 L8.07876419,7.34673788 L9.82925845,9.59946429 L0.588473294,9.59946429 L0.588473294,7.34673788 Z M3.21400016,13.5170188 L1.67874825,13.5170188 C1.0761839,13.5170188 0.587956856,13.0293657 0.587956856,12.4262277 L0.587956856,10.1449458 L3.21405756,10.1449458 L3.21400016,13.5170188 Z M6.98805947,13.5170188 L3.75942427,13.5170188 L3.75942427,10.1448884 L6.98805947,10.1448884 L6.98805947,13.5170188 Z M12.3837546,13.5170188 L7.53348358,13.5170188 L7.53348358,10.1448884 L10.2598866,10.1448884 L12.8142393,13.430635 C12.6847581,13.4883687 12.541269,13.5169558 12.3837546,13.5169558 L12.3837546,13.5170188 Z M13.4739858,12.4267873 C13.4739858,12.6706138 13.387665,12.9144407 13.2441644,13.0870937 L10.948246,10.145448 L13.4594067,10.145448 L13.4599664,12.4267299 L13.4739858,12.4267873 Z" id="Fill-1"></path>
                        <path d="M9.15511798,3.61592793 L11.235794,7.69089605 C11.2789544,7.77721684 11.3507018,7.79123055 11.3792889,7.79123055 C11.3938622,7.79123055 11.4224493,7.79123055 11.4510364,7.77665721 C11.4796234,7.76208386 11.5082105,7.74807015 11.5227838,7.70490976 C11.5373571,7.6763227 13.2300861,4.38989062 13.6034598,3.62994165 C13.9621971,2.89788807 13.9621971,2.10860874 13.6034598,1.39113425 C13.3882175,0.960649554 13.0580644,0.61649139 12.670743,0.37209088 C12.2834216,0.142269452 11.8243527,0.0133536352 11.3792889,0.0133536352 C11.0059726,0.0133536352 10.6186511,0.099674426 10.2599139,0.285764349 C9.67135523,0.587333227 9.22686543,1.10357047 9.02562819,1.74926881 C8.81038584,2.35295185 8.86811384,3.04184216 9.15510938,3.61585045 L9.15511798,3.61592793 Z M11.3933514,1.07621173 C12.1825733,1.07621173 12.8137213,1.70735969 12.8137213,2.49658163 C12.8137213,3.28580357 12.1825733,3.91695153 11.3933514,3.91695153 C10.6041295,3.91695153 9.97298151,3.28580357 9.97298151,2.49658163 C9.97298151,1.70735969 10.6041295,1.07621173 11.3933514,1.07621173 Z" id="Fill-2"></path>
                        <path d="M12.2834503,2.49652423 C12.2834503,2.98810906 11.8849219,3.38663744 11.3933371,3.38663744 C10.9023119,3.38663744 10.5037835,2.98810906 10.5037835,2.49652423 C10.5037835,2.00549904 10.9023119,1.60697066 11.3933371,1.60697066 C11.8849219,1.60697066 12.2834503,2.00549904 12.2834503,2.49652423" id="Fill-3"></path>
                    </g>
                </g>
            </g>
        </g>
    </g>
</svg>