<?xml version="1.0" encoding="UTF-8"?>
<svg width="131px" height="111px" viewBox="0 0 131 111" version="1.1" xmlns="http://www.w3.org/2000/svg" xmlns:xlink="http://www.w3.org/1999/xlink">
    <!-- Generator: Sketch 49.3 (51167) - http://www.bohemiancoding.com/sketch -->
    <title>Logo</title>
    <desc>Created with Sketch.</desc>
    <defs></defs>
    <g id="💎-Symbols" stroke="none" stroke-width="1" fill="none" fill-rule="evenodd">
        <g id="nav/vertical" transform="translate(-57.000000, -28.000000)">
            <g id="Logo" transform="translate(57.000000, 28.000000)">
                <path d="M0.0387509752,95.9182979 C0.0387509752,89.9387234 4.4436579,85.8548936 10.044674,85.8548936 C13.486999,85.8548936 15.8790897,87.4882979 17.4251706,89.7051064 L15.4122904,90.8425532 C14.30377,89.1797872 12.2617788,88.0129787 10.044674,88.0129787 C5.78557797,88.0129787 2.54747758,91.2510638 2.54747758,95.9182979 C2.54747758,100.527447 5.78557797,103.823617 10.044674,103.823617 C12.2617788,103.823617 14.30377,102.628085 15.4122904,100.994043 L17.4543455,102.102766 C15.8206759,104.348936 13.486999,105.98234 10.044674,105.98234 C4.4436579,105.98234 0.0387509752,101.898511 0.0387509752,95.9182979" id="Fill-1" fill="#00BFE8"></path>
                <path d="M20.4592378,105.632553 L22.6471676,105.632553 L22.6471676,91.542766 L20.4592378,91.542766 L20.4592378,105.632553 Z M20.0800273,88.0717021 C20.0800273,87.2546809 20.7509873,86.5838298 21.5677583,86.5838298 C22.3845931,86.5838298 23.0263782,87.2546809 23.0263782,88.0717021 C23.0263782,88.8880851 22.3845931,89.5302128 21.5677583,89.5302128 C20.7509873,89.5302128 20.0800273,88.8880851 20.0800273,88.0717021 Z" id="Fill-2" fill="#00BFE8"></path>
                <path d="M27.4603962,102.68617 L27.4603962,93.4678723 L25.1265916,93.4678723 L25.1265916,91.542766 L27.4603962,91.542766 L27.4603962,87.6925532 L29.6774371,87.6925532 L29.6774371,91.542766 L32.5362632,91.542766 L32.5362632,93.4678723 L29.6774371,93.4678723 L29.6774371,102.219574 C29.6774371,103.269574 30.1441725,104.027872 31.0777071,104.027872 C31.7194922,104.027872 32.2737524,103.73617 32.5654381,103.415106 L33.2072232,105.077872 C32.652963,105.603191 31.8653031,105.98234 30.6109079,105.98234 C28.5105668,105.98234 27.4603962,104.78617 27.4603962,102.68617" id="Fill-3" fill="#00BFE8"></path>
                <path d="M35.5991862,105.632553 L37.787116,105.632553 L37.787116,91.542766 L35.5991862,91.542766 L35.5991862,105.632553 Z M35.2199756,88.0717021 C35.2199756,87.2546809 35.8909357,86.5838298 36.7077066,86.5838298 C37.5245414,86.5838298 38.1663265,87.2546809 38.1663265,88.0717021 C38.1663265,88.8880851 37.5245414,89.5302128 36.7077066,89.5302128 C35.8909357,89.5302128 35.2199756,88.8880851 35.2199756,88.0717021 Z" id="Fill-4" fill="#00BFE8"></path>
                <path d="M41.0833748,102.890426 L42.5419946,101.023404 C43.7963899,102.481915 45.896731,103.823617 48.6391764,103.823617 C52.1101657,103.823617 53.2190692,101.956596 53.2190692,100.44 C53.2190692,95.4223404 41.6959849,98.2231915 41.6959849,91.2804255 C41.6959849,88.0717021 44.5548748,85.8548936 48.4055214,85.8548936 C51.3517446,85.8548936 53.6563743,86.8755319 55.2900439,88.596383 L53.8312963,90.3759574 C52.3731871,88.7425532 50.3309405,88.0423404 48.2012329,88.0423404 C45.896731,88.0423404 44.2047753,89.2965957 44.2047753,91.1342553 C44.2047753,95.5104255 55.7279873,93.0012766 55.7279873,100.265106 C55.7279873,103.065319 53.8025682,105.98234 48.551077,105.98234 C45.1966598,105.98234 42.6878694,104.698723 41.0833748,102.890426" id="Fill-5" fill="#FFFFFF"></path>
                <path d="M70.1679922,98.5729787 C70.1679922,95.4517021 68.4762281,93.1474468 65.646194,93.1474468 C63.9250634,93.1474468 62.2039327,94.1680851 61.4455117,95.393617 L61.4455117,101.75234 C62.2039327,102.977872 63.9250634,104.027872 65.646194,104.027872 C68.4762281,104.027872 70.1679922,101.694255 70.1679922,98.5729787 Z M61.4455117,103.503191 L61.4455117,111 L59.2577096,111 L59.2577096,91.542766 L61.4455117,91.542766 L61.4455117,93.6434043 C62.4669542,92.213617 64.2168129,91.1929787 66.2003265,91.1929787 C69.9056092,91.1929787 72.4726218,93.9931915 72.4726218,98.5729787 C72.4726218,103.123404 69.9056092,105.98234 66.2003265,105.98234 C64.2755458,105.98234 62.6125097,105.049149 61.4455117,103.503191 Z" id="Fill-6" fill="#FFFFFF"></path>
                <path d="M85.4832456,105.632553 L85.4832456,96.3561702 C85.4832456,93.8476596 84.2287865,93.1474468 82.3033674,93.1474468 C80.6116033,93.1474468 78.9779337,94.1974468 78.1614181,95.3348936 L78.1614181,105.632553 L75.9729776,105.632553 L75.9729776,86.1753191 L78.1614181,86.1753191 L78.1614181,93.5846809 C79.1234893,92.3891489 81.0489084,91.1929787 83.178616,91.1929787 C86.1248392,91.1929787 87.6710478,92.6221277 87.6710478,95.6853191 L87.6710478,105.632553 L85.4832456,105.632553" id="Fill-7" fill="#FFFFFF"></path>
                <path d="M98.1440253,93.0012766 C95.1390692,93.0012766 93.6515936,95.5391489 93.5347661,97.6685106 L102.782013,97.6685106 C102.753285,95.5978723 101.352632,93.0012766 98.1440253,93.0012766 Z M91.2301365,98.5729787 C91.2301365,94.4891489 94.1469932,91.1929787 98.1727534,91.1929787 C102.432169,91.1929787 104.941087,94.5185106 104.941087,98.7478723 L104.941087,99.3025532 L93.5634942,99.3025532 C93.7390546,101.956596 95.5763743,104.174043 98.6106969,104.174043 C100.244366,104.174043 101.84867,103.531915 102.986301,102.365106 L104.036472,103.794894 C102.607091,105.194681 100.711038,105.98234 98.4357749,105.98234 C94.2344542,105.98234 91.2301365,102.977872 91.2301365,98.5729787 Z" id="Fill-8" fill="#FFFFFF"></path>
                <path d="M108.470809,105.632553 L108.470809,91.542766 L110.658611,91.542766 L110.658611,93.7889362 C111.796243,92.3304255 113.429912,91.2217021 115.355331,91.2217021 L115.355331,93.4678723 C115.092948,93.4391489 114.829927,93.4097872 114.509449,93.4097872 C113.138163,93.4097872 111.300205,94.5185106 110.658611,95.6559574 L110.658611,105.632553 L108.470809,105.632553" id="Fill-9" fill="#FFFFFF"></path>
                <path d="M124.194001,93.0012766 C121.189683,93.0012766 119.701569,95.5391489 119.584742,97.6685106 L128.832627,97.6685106 C128.80326,95.5978723 127.403246,93.0012766 124.194001,93.0012766 Z M117.280112,98.5729787 C117.280112,94.4891489 120.197607,91.1929787 124.223367,91.1929787 C128.482144,91.1929787 130.991062,94.5185106 130.991062,98.7478723 L130.991062,99.3025532 L119.614108,99.3025532 C119.78903,101.956596 121.626988,104.174043 124.660673,104.174043 C126.294342,104.174043 127.898645,103.531915 129.036915,102.365106 L130.087086,103.794894 C128.657066,105.194681 126.761014,105.98234 124.48575,105.98234 C120.285068,105.98234 117.280112,102.977872 117.280112,98.5729787 Z" id="Fill-10" fill="#FFFFFF"></path>
                <path d="M95.5323246,48.9793404 C97.6052144,54.1340426 97.6754386,58.9665957 95.2667495,62.5621277 C89.6526462,70.9429787 72.6979776,69.4308511 57.396769,59.1848936 C42.0961988,48.938617 34.2436043,33.8382766 39.8578353,25.457234 C42.266269,21.861766 46.7620205,20.0871064 52.318923,20.0415957 C44.0202773,19.0674894 37.1403514,20.9852553 33.7919352,25.9838936 C27.3784893,35.5580426 36.348925,52.8082979 53.8281043,64.512766 C71.3069006,76.2178723 90.6753655,77.9451064 97.0887476,68.3706383 C100.437164,63.3721277 99.5919201,56.2812766 95.5323246,48.9793404" id="Fill-15" fill="#00BFE8"></path>
                <path d="M75.6442008,50.9904255 L75.6442008,62.363617 L71.9433869,61.217234 L71.9433869,21.3227872 L75.6442008,23.3385957 L75.6442008,50.9904255 Z M64.0578509,38.1729574 L64.0578509,57.263617 L60.4017251,55.0882979 L60.4017251,38.1729574 L64.0578509,38.1729574 Z M78.1346053,21.8597234 L78.1346053,0.0220851064 L57.9113207,12.6223404 L57.9113207,35.6831489 L46.4425005,35.6831489 L46.4425005,45.8144043 C47.2117105,46.8104681 48.042271,47.7945319 48.9328411,48.7607872 L48.9328411,38.1729574 L57.9113207,38.1729574 L57.9113207,56.3508511 C58.3684162,56.6814894 58.8376413,57.0121277 59.3183577,57.3414894 C61.3529435,58.7348936 63.5943713,60.102766 65.9871004,61.3091489 C66.1735136,61.4029787 66.3599269,61.4961702 66.547617,61.5880851 L66.547617,35.6831489 L60.4017251,35.6831489 L60.4017251,14.0045106 L75.6442008,4.50740426 L75.6442008,20.5032766 L69.4529825,17.1308936 L69.4529825,62.8876596 C70.9391813,63.4908511 72.468153,64.0161702 74.0303216,64.4355319 C75.3767105,64.7968085 76.7473587,65.0795745 78.1346053,65.2653191 L78.1346053,24.6951064 L86.8800682,29.4587872 L86.8800682,65.0719149 C87.773192,64.8746809 88.606306,64.607234 89.3698343,64.2702128 L89.3698343,27.9798511 L78.1346053,21.8597234 Z" id="Fill-17" fill="#FFFFFF"></path>
            </g>
        </g>
    </g>
</svg>